<?xml version="1.0" encoding="iso-8859-1"?>
<!-- Generator: Adobe Illustrator 19.0.0, SVG Export Plug-In . SVG Version: 6.00 Build 0)  -->
<svg version="1.1" id="Layer_1" xmlns="http://www.w3.org/2000/svg" xmlns:xlink="http://www.w3.org/1999/xlink" x="0px" y="0px"
	 viewBox="0 0 511.623 511.623" style="enable-background:new 0 0 511.623 511.623;" xml:space="preserve">
<g>
	<g>
		<path d="M179.711,102.647c-6.588,0-11.952,5.384-11.952,12v4.468c0,2.208-1.792,4.004-4,4.004s-4-1.796-4-4.004v-4.468
			c0-6.616-5.384-12-12-12c-6.616,0-12,5.384-12,12v19.62c0,2.204-1.792,4-3.996,4c-2.208,0-4.004-1.796-4.004-4v-19.62
			c0-6.616-5.396-12-12.028-12c-2.212,0-4,1.792-4,4s1.788,4,4,4c2.22,0,4.028,1.796,4.028,4v19.62c0,6.616,5.388,12,12.004,12
			c6.612,0,11.996-5.384,11.996-12v-19.62c0-2.204,1.792-4,4-4s4,1.796,4,4v4.468c0,6.62,5.384,12.004,12,12.004
			c6.616,0,12-5.384,12-12.004v-4.468c0-2.204,1.772-4,3.952-4c2.212,0,4-1.792,4-4
			C183.711,104.439,181.923,102.647,179.711,102.647z"/>
	</g>
</g>
<g>
	<g>
		<path d="M174.331,87.623h-57c-5.28,0-9.572,4.132-9.572,9.208v62.792c0,2.208,1.788,4,4,4s4-1.792,4-4V96.831
			c0-0.748,0.816-1.208,1.572-1.208h57c0.708,0,1.428,0.416,1.428,1.208v62.792c0,2.208,1.788,4,4,4c2.212,0,4-1.792,4-4V96.831
			C183.759,91.667,179.618,87.623,174.331,87.623z"/>
	</g>
</g>
<g>
	<g>
		<path d="M151.506,2.043c-1.352-2.724-5.812-2.724-7.164,0c-2.084,4.196-20.34,41.316-20.34,52.916
			c0,13.192,10.728,23.924,23.92,23.924c13.192,0,23.92-10.732,23.924-23.924C171.847,43.359,153.591,6.235,151.506,2.043z
			 M147.923,70.883c-8.78,0-15.92-7.144-15.92-15.924c0-6.24,8.684-26.648,15.92-41.952c7.236,15.3,15.92,35.712,15.92,41.952
			C163.842,63.739,156.703,70.883,147.923,70.883z"/>
	</g>
</g>
<g>
	<g>
		<path d="M147.759,55.623c-2.212,0-4,1.792-4,4v32c0,2.208,1.788,4,4,4c2.212,0,4-1.792,4-4v-32
			C151.759,57.415,149.971,55.623,147.759,55.623z"/>
	</g>
</g>
<g>
	<g>
		<path d="M291.651,102.647c-6.556,0-11.892,5.384-11.892,12v4.468c0,2.208-1.792,4.004-4,4.004s-4-1.796-4-4.004v-4.468
			c0-6.616-5.384-12-12-12c-6.616,0-12,5.384-12,12v19.62c0,2.204-1.792,4-3.996,4c-2.208,0-4.004-1.796-4.004-4v-19.62
			c0-6.616-5.412-12-12.06-12c-2.212,0-4,1.792-4,4s1.788,4,4,4c2.24,0,4.06,1.796,4.06,4v19.62c0,6.616,5.388,12,12.004,12
			c6.612,0,11.996-5.384,11.996-12v-19.62c0-2.204,1.792-4,4-4s4,1.796,4,4v4.468c0,6.62,5.384,12.004,12,12.004
			c6.616,0,12-5.384,12-12.004v-4.468c0-2.244,1.708-4,3.892-4c2.212,0,4-1.792,4-4
			C295.651,104.439,293.863,102.647,291.651,102.647z"/>
	</g>
</g>
<g>
	<g>
		<path d="M286.203,87.623h-57c-5.296,0-9.444,4.044-9.444,9.208v62.792c0,2.208,1.788,4,4,4c2.212,0,4-1.792,4-4V96.831
			c0-0.792,0.728-1.208,1.444-1.208h57c0.748,0,1.556,0.46,1.556,1.208v62.792c0,2.208,1.788,4,4,4c2.212,0,4-1.792,4-4V96.831
			C295.759,91.755,291.475,87.623,286.203,87.623z"/>
	</g>
</g>
<g>
	<g>
		<path d="M263.383,2.043c-1.352-2.724-5.812-2.724-7.164,0c-2.084,4.196-20.34,41.316-20.34,52.916
			c0,13.192,10.728,23.924,23.92,23.924c13.192,0,23.92-10.732,23.924-23.924C283.723,43.359,265.467,6.235,263.383,2.043z
			 M259.799,70.883c-8.78,0-15.92-7.144-15.92-15.924c0-6.24,8.684-26.648,15.92-41.952c7.232,15.3,15.92,35.712,15.92,41.952
			C275.719,63.739,268.579,70.883,259.799,70.883z"/>
	</g>
</g>
<g>
	<g>
		<path d="M259.759,55.623c-2.212,0-4,1.792-4,4v32c0,2.208,1.788,4,4,4c2.212,0,4-1.792,4-4v-32
			C263.759,57.415,261.971,55.623,259.759,55.623z"/>
	</g>
</g>
<g>
	<g>
		<path d="M403.639,102.647c-6.552,0-11.88,5.384-11.88,12v4.468c0,2.208-1.792,4.004-4,4.004s-4-1.796-4-4.004v-4.468
			c0-6.616-5.384-12-12-12c-6.616,0-12,5.384-12,12v19.62c0,2.204-1.792,4-3.996,4c-2.208,0-4.004-1.796-4.004-4v-19.62
			c0-6.616-5.412-12-12.064-12c-2.212,0-4,1.792-4,4s1.788,4,4,4c2.24,0,4.064,1.796,4.064,4v19.62c0,6.616,5.388,12,12.004,12
			c6.612,0,11.996-5.384,11.996-12v-19.62c0-2.204,1.792-4,4-4s4,1.796,4,4v4.468c0,6.62,5.384,12.004,12,12.004
			c6.616,0,12-5.384,12-12.004v-4.468c0-2.244,1.704-4,3.88-4c2.212,0,4-1.792,4-4C407.639,104.439,405.851,102.647,403.639,102.647
			z"/>
	</g>
</g>
<g>
	<g>
		<path d="M398.179,87.623h-57c-5.284,0-9.42,4.044-9.42,9.208v62.792c0,2.208,1.788,4,4,4c2.212,0,4-1.792,4-4V96.831
			c0-0.832,0.74-1.208,1.42-1.208h57c0.764,0,1.58,0.484,1.58,1.208v62.792c0,2.208,1.788,4,4,4c2.212,0,4-1.792,4-4V96.831
			C407.759,91.755,403.459,87.623,398.179,87.623z"/>
	</g>
</g>
<g>
	<g>
		<path d="M375.358,2.043c-1.352-2.724-5.812-2.724-7.164,0c-2.084,4.196-20.34,41.316-20.34,52.916
			c0,13.192,10.728,23.924,23.92,23.924s23.92-10.732,23.924-23.924C395.699,43.359,377.443,6.235,375.358,2.043z M371.775,70.883
			c-8.78,0-15.92-7.144-15.92-15.924c0-6.24,8.684-26.648,15.92-41.952c7.232,15.3,15.92,35.712,15.92,41.952
			C387.695,63.739,380.555,70.883,371.775,70.883z"/>
	</g>
</g>
<g>
	<g>
		<path d="M371.759,55.623c-2.212,0-4,1.792-4,4v32c0,2.208,1.788,4,4,4c2.212,0,4-1.792,4-4v-32
			C375.759,57.415,373.971,55.623,371.759,55.623z"/>
	</g>
</g>
<g>
	<g>
		<path d="M447.859,155.623h-384.1c-19.852,0-36,15.948-36,35.556v24.444c0,2.208,1.788,4,4,4c2.212,0,4-1.792,4-4v-24.444
			c0-15.196,12.564-27.556,28-27.556h384.1c15.384,0,27.9,12.364,27.9,27.556v24.444c0,2.208,1.788,4,4,4c2.212,0,4-1.792,4-4
			v-24.444C483.759,171.571,467.651,155.623,447.859,155.623z"/>
	</g>
</g>
<g>
	<g>
		<path d="M479.863,211.303c-8.076,0-12.288,2.404-16.008,4.528c-3.268,1.864-6.088,3.472-12.032,3.472
			c-5.952,0-8.772-1.612-12.036-3.476c-3.72-2.12-7.932-4.524-16.004-4.524c-8.068,0-12.276,2.404-15.992,4.528
			c-3.264,1.864-6.084,3.472-12.024,3.472c-5.936,0-8.756-1.608-12.016-3.472c-3.712-2.124-7.92-4.528-15.98-4.528
			c-8.064,0-12.272,2.404-15.988,4.524c-3.264,1.868-6.084,3.476-12.024,3.476c-5.936,0-8.756-1.608-12.016-3.472
			c-3.716-2.124-7.92-4.528-15.984-4.528c-8.064,0-12.268,2.404-15.984,4.528c-3.264,1.864-6.08,3.472-12.016,3.472
			c-5.936,0-8.756-1.608-12.016-3.472c-3.716-2.124-7.92-4.528-15.988-4.528c-8.064,0-12.268,2.408-15.98,4.528
			c-3.26,1.864-6.076,3.472-12.008,3.472c-5.94,0-8.764-1.612-12.024-3.476c-3.716-2.12-7.92-4.524-15.984-4.524
			c-8.064,0-12.272,2.404-15.988,4.528c-3.264,1.864-6.08,3.472-12.02,3.472c-5.936,0-8.756-1.608-12.016-3.472
			c-3.716-2.124-7.92-4.528-15.984-4.528c-8.064,0-12.268,2.404-15.984,4.528c-3.264,1.864-6.08,3.472-12.016,3.472
			s-8.756-1.608-12.016-3.472c-3.716-2.124-7.92-4.528-15.984-4.528s-12.268,2.404-15.984,4.528
			c-3.264,1.864-6.08,3.472-12.016,3.472s-8.756-1.608-12.016-3.472c-3.712-2.124-7.916-4.528-15.976-4.528c-2.212,0-4,1.792-4,4
			s1.788,4,4,4c5.932,0,8.748,1.608,12.008,3.472c3.712,2.12,7.92,4.528,15.984,4.528c8.064,0,12.268-2.404,15.984-4.528
			c3.264-1.864,6.08-3.472,12.016-3.472s8.756,1.608,12.016,3.472c3.716,2.124,7.92,4.528,15.984,4.528s12.268-2.404,15.984-4.528
			c3.264-1.864,6.08-3.472,12.016-3.472c5.936,0,8.756,1.608,12.016,3.472c3.716,2.124,7.92,4.528,15.984,4.528
			c8.064,0,12.272-2.404,15.988-4.528c3.264-1.864,6.08-3.472,12.02-3.472c5.936,0,8.756,1.608,12.016,3.472
			c3.716,2.12,7.924,4.528,15.992,4.528c8.06,0,12.264-2.404,15.976-4.528c3.26-1.864,6.076-3.472,12.012-3.472
			c5.94,0,8.76,1.608,12.02,3.472c3.716,2.124,7.92,4.528,15.984,4.528c8.064,0,12.268-2.404,15.984-4.528
			c3.264-1.864,6.08-3.472,12.016-3.472c5.936,0,8.756,1.608,12.016,3.472c3.716,2.124,7.92,4.528,15.984,4.528
			c8.068,0,12.276-2.404,15.992-4.528c3.264-1.864,6.08-3.472,12.02-3.472c5.932,0,8.752,1.608,12.012,3.472
			c3.712,2.12,7.92,4.528,15.984,4.528c8.068,0,12.276-2.404,15.992-4.528c3.264-1.864,6.084-3.472,12.024-3.472
			c5.952,0,8.772,1.612,12.036,3.476c3.72,2.12,7.932,4.524,16.004,4.524c8.064,0,12.28-2.404,15.996-4.524
			c3.272-1.868,6.092-3.476,12.044-3.476c2.212,0,4-1.792,4-4S482.075,211.303,479.863,211.303z"/>
	</g>
</g>
<g>
	<g>
		<path d="M475.327,331.227c-0.72-2.088-3-3.204-5.084-2.488c-2.548,0.872-4.584,2.036-6.38,3.06
			c-3.268,1.868-6.084,3.476-12.036,3.476c-5.952,0-8.772-1.612-12.036-3.476c-3.72-2.12-7.932-4.524-16.004-4.524
			c-8.068,0-12.276,2.404-15.992,4.528c-3.264,1.864-6.084,3.472-12.024,3.472c-5.936,0-8.756-1.608-12.016-3.472
			c-3.712-2.124-7.92-4.528-15.98-4.528c-8.064,0-12.272,2.404-15.988,4.524c-3.264,1.868-6.084,3.476-12.024,3.476
			c-5.936,0-8.756-1.608-12.016-3.472c-3.716-2.124-7.92-4.528-15.984-4.528c-8.064,0-12.268,2.404-15.984,4.528
			c-3.264,1.864-6.08,3.472-12.016,3.472c-5.936,0-8.756-1.608-12.016-3.472c-3.716-2.124-7.92-4.528-15.988-4.528
			c-8.064,0-12.268,2.408-15.98,4.528c-3.26,1.864-6.076,3.472-12.008,3.472c-5.94,0-8.764-1.612-12.024-3.476
			c-3.716-2.12-7.92-4.524-15.984-4.524c-8.064,0-12.272,2.404-15.988,4.528c-3.264,1.864-6.08,3.472-12.02,3.472
			c-5.936,0-8.756-1.608-12.016-3.472c-3.716-2.124-7.92-4.528-15.984-4.528c-8.064,0-12.268,2.404-15.984,4.528
			c-3.264,1.864-6.08,3.472-12.016,3.472s-8.756-1.608-12.016-3.472c-3.716-2.124-7.92-4.528-15.984-4.528
			s-12.268,2.404-15.984,4.528c-3.264,1.864-6.08,3.472-12.016,3.472s-8.752-1.612-12.012-3.476
			c-1.832-1.048-3.908-2.236-6.528-3.116c-2.088-0.688-4.364,0.428-5.068,2.52c-0.704,2.096,0.428,4.364,2.52,5.068
			c1.872,0.632,3.444,1.528,5.104,2.476c3.712,2.12,7.916,4.528,15.98,4.528c8.064,0,12.268-2.404,15.984-4.528
			c3.264-1.864,6.08-3.472,12.016-3.472c5.936,0,8.756,1.608,12.016,3.472c3.716,2.124,7.92,4.528,15.984,4.528
			c8.064,0,12.268-2.404,15.984-4.528c3.264-1.864,6.08-3.472,12.016-3.472c5.936,0,8.756,1.608,12.016,3.472
			c3.716,2.124,7.92,4.528,15.984,4.528c8.064,0,12.272-2.404,15.988-4.528c3.264-1.864,6.08-3.472,12.02-3.472
			c5.936,0,8.756,1.608,12.016,3.472c3.716,2.12,7.924,4.528,15.992,4.528c8.06,0,12.264-2.404,15.976-4.528
			c3.26-1.864,6.076-3.472,12.012-3.472c5.94,0,8.76,1.608,12.02,3.472c3.716,2.124,7.92,4.528,15.984,4.528
			c8.064,0,12.268-2.404,15.984-4.528c3.264-1.864,6.08-3.472,12.016-3.472c5.936,0,8.756,1.608,12.016,3.472
			c3.716,2.124,7.92,4.528,15.984,4.528c8.068,0,12.276-2.404,15.992-4.528c3.264-1.864,6.08-3.472,12.02-3.472
			c5.932,0,8.752,1.608,12.012,3.472c3.712,2.12,7.92,4.528,15.984,4.528c8.068,0,12.276-2.404,15.992-4.528
			c3.264-1.864,6.084-3.472,12.024-3.472c5.952,0,8.772,1.612,12.036,3.476c3.72,2.12,7.932,4.524,16.004,4.524
			c8.068,0,12.284-2.404,16.008-4.524c1.632-0.936,3.176-1.812,5.008-2.44C474.927,335.591,476.043,333.319,475.327,331.227z"/>
	</g>
</g>
<g>
	<g>
		<path d="M475.327,439.143c-0.72-2.088-3-3.208-5.084-2.488c-2.548,0.872-4.584,2.036-6.38,3.06
			c-3.268,1.868-6.084,3.476-12.036,3.476c-5.952,0-8.772-1.612-12.036-3.476c-3.72-2.12-7.932-4.524-16.004-4.524
			c-8.068,0-12.276,2.404-15.992,4.528c-3.264,1.864-6.084,3.472-12.024,3.472c-5.936,0-8.756-1.608-12.016-3.472
			c-3.712-2.124-7.92-4.528-15.98-4.528c-8.064,0-12.272,2.404-15.988,4.524c-3.264,1.868-6.084,3.476-12.024,3.476
			c-5.936,0-8.756-1.608-12.016-3.472c-3.716-2.124-7.92-4.528-15.984-4.528c-8.064,0-12.268,2.404-15.984,4.528
			c-3.264,1.864-6.08,3.472-12.016,3.472c-5.936,0-8.756-1.608-12.016-3.472c-3.716-2.124-7.92-4.528-15.988-4.528
			c-8.064,0-12.268,2.408-15.98,4.528c-3.26,1.864-6.076,3.472-12.008,3.472c-5.94,0-8.764-1.612-12.024-3.476
			c-3.716-2.12-7.92-4.524-15.984-4.524c-8.064,0-12.272,2.404-15.988,4.528c-3.264,1.864-6.08,3.472-12.02,3.472
			c-5.936,0-8.756-1.608-12.016-3.472c-3.716-2.124-7.92-4.528-15.984-4.528c-8.064,0-12.268,2.404-15.984,4.528
			c-3.264,1.864-6.08,3.472-12.016,3.472s-8.756-1.608-12.016-3.472c-3.716-2.124-7.92-4.528-15.984-4.528
			s-12.268,2.404-15.984,4.528c-3.264,1.864-6.08,3.472-12.016,3.472s-8.752-1.612-12.012-3.476
			c-1.832-1.048-3.908-2.236-6.528-3.116c-2.088-0.688-4.364,0.428-5.068,2.52c-0.704,2.096,0.428,4.364,2.52,5.068
			c1.872,0.632,3.444,1.528,5.104,2.476c3.712,2.12,7.916,4.528,15.98,4.528c8.064,0,12.268-2.404,15.984-4.528
			c3.264-1.864,6.08-3.472,12.016-3.472c5.936,0,8.756,1.608,12.016,3.472c3.716,2.124,7.92,4.528,15.984,4.528
			c8.064,0,12.268-2.404,15.984-4.528c3.264-1.864,6.08-3.472,12.016-3.472c5.936,0,8.756,1.608,12.016,3.472
			c3.716,2.124,7.92,4.528,15.984,4.528c8.064,0,12.272-2.404,15.988-4.528c3.264-1.864,6.08-3.472,12.02-3.472
			c5.936,0,8.756,1.608,12.016,3.472c3.716,2.12,7.924,4.528,15.992,4.528c8.06,0,12.264-2.404,15.976-4.528
			c3.26-1.864,6.076-3.472,12.012-3.472c5.94,0,8.76,1.608,12.02,3.472c3.716,2.124,7.92,4.528,15.984,4.528
			c8.064,0,12.268-2.404,15.984-4.528c3.264-1.864,6.08-3.472,12.016-3.472c5.936,0,8.756,1.608,12.016,3.472
			c3.716,2.124,7.92,4.528,15.984,4.528c8.068,0,12.276-2.404,15.992-4.528c3.264-1.864,6.08-3.472,12.02-3.472
			c5.932,0,8.752,1.608,12.012,3.472c3.712,2.12,7.92,4.528,15.984,4.528c8.068,0,12.276-2.404,15.992-4.528
			c3.264-1.864,6.084-3.472,12.024-3.472c5.952,0,8.772,1.612,12.036,3.476c3.72,2.12,7.932,4.524,16.004,4.524
			c8.068,0,12.284-2.404,16.008-4.524c1.632-0.936,3.176-1.812,5.008-2.44C474.927,443.507,476.043,441.235,475.327,439.143z"/>
	</g>
</g>
<g>
	<g>
		<path d="M463.759,411.623h-416c-6.616,0-12,5.384-12,12v76c0,6.616,5.384,12,12,12h416c6.616,0,12-5.384,12-12v-76
			C475.759,417.007,470.375,411.623,463.759,411.623z M467.759,499.623c0,2.204-1.792,4-4,4h-416c-2.208,0-4-1.796-4-4v-76
			c0-2.204,1.792-4,4-4h416c2.208,0,4,1.796,4,4V499.623z"/>
	</g>
</g>
<g>
	<g>
		<path d="M463.691,303.623H47.923c-6.708,0-12.164,5.316-12.164,11.848v75.832c0,6.676,5.572,12.32,12.164,12.32h27.836
			c2.212,0,4-1.792,4-4s-1.788-4-4-4H47.923c-2.14,0-4.164-2.1-4.164-4.32v-75.832c0-2.088,1.908-3.848,4.164-3.848h415.768
			c2.244,0,4.068,1.728,4.068,3.848v75.832c0,2.26-1.94,4.32-4.068,4.32H111.759c-2.212,0-4,1.792-4,4s1.788,4,4,4h351.932
			c6.54,0,12.068-5.644,12.068-12.32v-75.832C475.759,308.939,470.343,303.623,463.691,303.623z"/>
	</g>
</g>
<g>
	<g>
		<path d="M75.759,287.623H47.923c-2.18,0-4.164-2-4.164-4.196v-63.804c0-2.208-1.788-4-4-4c-2.212,0-4,1.792-4,4v63.804
			c0,6.612,5.572,12.196,12.164,12.196h27.836c2.212,0,4-1.792,4-4S77.97,287.623,75.759,287.623z"/>
	</g>
</g>
<g>
	<g>
		<path d="M471.759,215.623c-2.212,0-4,1.792-4,4v63.804c0,2.236-1.9,4.196-4.068,4.196H111.759c-2.212,0-4,1.792-4,4s1.788,4,4,4
			h351.932c6.54,0,12.068-5.584,12.068-12.196v-63.804C475.759,217.415,473.971,215.623,471.759,215.623z"/>
	</g>
</g>
<g>
	<g>
		<path d="M56.006,411.347c-2.252,0-4.084-1.804-4.084-4.024c0-2.216,1.832-4.02,4.084-4.02c2.212,0,4-1.792,4-4s-1.788-4-4-4
			c-6.664,0-12.084,5.392-12.084,12.02s5.42,12.024,12.084,12.024c2.212,0,4-1.792,4-4S58.219,411.347,56.006,411.347z"/>
	</g>
</g>
<g>
	<g>
		<path d="M455.611,395.303c-2.212,0-4,1.792-4,4s1.788,4,4,4c2.252,0,4.084,1.804,4.084,4.02c0,2.22-1.836,4.024-4.084,4.024
			c-2.212,0-4,1.792-4,4s1.788,4,4,4c6.66,0,12.08-5.396,12.084-12.024C467.694,400.695,462.271,395.303,455.611,395.303z"/>
	</g>
</g>
<g>
	<g>
		<path d="M56.006,303.471c-2.252,0-4.084-1.804-4.084-4.024c0-2.216,1.832-4.02,4.084-4.02c2.212,0,4-1.792,4-4s-1.788-4-4-4
			c-6.664,0-12.084,5.392-12.084,12.02s5.42,12.024,12.084,12.024c2.212,0,4-1.792,4-4S58.219,303.471,56.006,303.471z"/>
	</g>
</g>
<g>
	<g>
		<path d="M455.611,287.427c-2.212,0-4,1.792-4,4s1.788,4,4,4c2.252,0,4.084,1.804,4.084,4.02c0,2.22-1.836,4.024-4.084,4.024
			c-2.212,0-4,1.792-4,4s1.788,4,4,4c6.66,0,12.08-5.396,12.084-12.024C467.694,292.819,462.271,287.427,455.611,287.427z"/>
	</g>
</g>
<g>
</g>
<g>
</g>
<g>
</g>
<g>
</g>
<g>
</g>
<g>
</g>
<g>
</g>
<g>
</g>
<g>
</g>
<g>
</g>
<g>
</g>
<g>
</g>
<g>
</g>
<g>
</g>
<g>
</g>
</svg>
